<svg xmlns="http://www.w3.org/2000/svg" width="1100" height="580" viewBox="0 0 1100 580">
  <defs>
    <filter id="shadow" x="-2%" y="-2%" width="106%" height="110%">
      <feDropShadow dx="0" dy="1" stdDeviation="3" flood-opacity="0.08"/>
    </filter>
  </defs>

  <!-- Background -->
  <rect width="1100" height="580" fill="#f8fafc"/>

  <!-- Sidebar -->
  <rect x="0" y="0" width="220" height="580" fill="#0f172a"/>
  <rect x="20" y="18" width="36" height="36" rx="10" fill="#e11d48"/>
  <text x="66" y="42" fill="white" font-family="system-ui, sans-serif" font-size="15" font-weight="700">Typesense Admin</text>

  <text x="48" y="100" fill="#94a3b8" font-family="system-ui, sans-serif" font-size="13">Dashboard</text>
  <text x="48" y="136" fill="#94a3b8" font-family="system-ui, sans-serif" font-size="13">Analytics</text>
  <text x="48" y="172" fill="#94a3b8" font-family="system-ui, sans-serif" font-size="13">Collections</text>
  <text x="48" y="208" fill="#94a3b8" font-family="system-ui, sans-serif" font-size="13">Synonyms</text>
  <text x="48" y="244" fill="#94a3b8" font-family="system-ui, sans-serif" font-size="13">API Keys</text>
  <rect x="12" y="258" width="196" height="36" rx="8" fill="rgba(255,255,255,0.1)"/>
  <text x="48" y="282" fill="white" font-family="system-ui, sans-serif" font-size="13" font-weight="500">Settings</text>

  <!-- Header -->
  <rect x="220" y="0" width="880" height="56" fill="white" stroke="#e2e8f0" stroke-width="1"/>
  <text x="244" y="35" fill="#0f172a" font-family="system-ui, sans-serif" font-size="16" font-weight="600">Settings</text>

  <!-- Backup card -->
  <rect x="244" y="72" width="826" height="494" rx="12" fill="white" stroke="#e5e7eb" stroke-width="1" filter="url(#shadow)"/>

  <!-- Card header -->
  <rect x="256" y="86" width="40" height="40" rx="10" fill="#ecfdf5"/>
  <text x="308" y="104" fill="#111827" font-family="system-ui, sans-serif" font-size="15" font-weight="600">Backup &amp; Download</text>
  <text x="308" y="120" fill="#9ca3af" font-family="system-ui, sans-serif" font-size="11">Export collections, documents, synonyms, and curation rules</text>
  <line x1="244" y1="140" x2="1070" y2="140" stroke="#e5e7eb" stroke-width="1"/>

  <!-- Quick actions bar -->
  <rect x="244" y="140" width="826" height="60" fill="#f9fafb"/>
  <rect x="260" y="152" width="130" height="34" rx="7" fill="#e11d48"/>
  <text x="278" y="174" fill="white" font-family="system-ui, sans-serif" font-size="12" font-weight="500">Full Backup (All)</text>
  <rect x="400" y="152" width="140" height="34" rx="7" fill="white" stroke="#d1d5db" stroke-width="1"/>
  <text x="418" y="174" fill="#374151" font-family="system-ui, sans-serif" font-size="12" font-weight="500">Export All Schemas</text>
  <text x="260" y="192" fill="#9ca3af" font-family="system-ui, sans-serif" font-size="10">Full backup includes schemas, documents (JSONL), synonyms, and curation rules.</text>
  <line x1="244" y1="200" x2="1070" y2="200" stroke="#e5e7eb" stroke-width="1"/>

  <!-- Select all -->
  <rect x="244" y="200" width="826" height="36" fill="#f9fafb"/>
  <rect x="264" y="210" width="16" height="16" rx="3" fill="white" stroke="#d1d5db" stroke-width="1.5"/>
  <text x="290" y="223" fill="#6b7280" font-family="system-ui, sans-serif" font-size="11" font-weight="600" letter-spacing="0.3">4 COLLECTIONS</text>

  <!-- Collection rows -->
  <!-- Row 1 -->
  <rect x="264" y="252" width="16" height="16" rx="3" fill="#e11d48" stroke="#e11d48" stroke-width="1.5"/>
  <polyline points="267,260 271,264 277,256" fill="none" stroke="white" stroke-width="2" stroke-linecap="round"/>
  <text x="294" y="264" fill="#111827" font-family="system-ui, sans-serif" font-size="13" font-weight="600">CC-Products-AU</text>
  <rect x="432" y="250" width="70" height="20" rx="4" fill="#f3f4f6"/>
  <text x="442" y="264" fill="#6b7280" font-family="system-ui, sans-serif" font-size="10">12.4K docs</text>
  <rect x="508" y="250" width="58" height="20" rx="4" fill="#f3f4f6"/>
  <text x="518" y="264" fill="#6b7280" font-family="system-ui, sans-serif" font-size="10">24 fields</text>
  <!-- Check icon -->
  <circle cx="580" cy="260" r="7" fill="#dcfce7"/>
  <polyline points="575,260 578,263 585,257" fill="none" stroke="#16a34a" stroke-width="1.5" stroke-linecap="round"/>

  <!-- Action buttons -->
  <rect x="820" y="248" width="52" height="24" rx="5" fill="#f9fafb"/>
  <text x="830" y="264" fill="#6b7280" font-family="system-ui, sans-serif" font-size="10">Schema</text>
  <rect x="878" y="248" width="42" height="24" rx="5" fill="#f9fafb"/>
  <text x="888" y="264" fill="#6b7280" font-family="system-ui, sans-serif" font-size="10">Docs</text>
  <rect x="926" y="248" width="60" height="24" rx="5" fill="#f9fafb"/>
  <text x="933" y="264" fill="#6b7280" font-family="system-ui, sans-serif" font-size="10">Synonyms</text>
  <rect x="992" y="248" width="46" height="24" rx="5" fill="#f9fafb"/>
  <text x="1000" y="264" fill="#6b7280" font-family="system-ui, sans-serif" font-size="10">Rules</text>
  <line x1="260" y1="282" x2="1058" y2="282" stroke="#f3f4f6" stroke-width="1"/>

  <!-- Row 2 -->
  <rect x="264" y="298" width="16" height="16" rx="3" fill="white" stroke="#d1d5db" stroke-width="1.5"/>
  <text x="294" y="310" fill="#111827" font-family="system-ui, sans-serif" font-size="13" font-weight="600">CC-Products-NZ</text>
  <rect x="432" y="296" width="62" height="20" rx="4" fill="#f3f4f6"/>
  <text x="442" y="310" fill="#6b7280" font-family="system-ui, sans-serif" font-size="10">8.7K docs</text>
  <rect x="500" y="296" width="58" height="20" rx="4" fill="#f3f4f6"/>
  <text x="510" y="310" fill="#6b7280" font-family="system-ui, sans-serif" font-size="10">20 fields</text>
  <rect x="820" y="294" width="52" height="24" rx="5" fill="#f9fafb"/>
  <text x="830" y="310" fill="#6b7280" font-family="system-ui, sans-serif" font-size="10">Schema</text>
  <rect x="878" y="294" width="42" height="24" rx="5" fill="#f9fafb"/>
  <text x="888" y="310" fill="#6b7280" font-family="system-ui, sans-serif" font-size="10">Docs</text>
  <rect x="926" y="294" width="60" height="24" rx="5" fill="#f9fafb"/>
  <text x="933" y="310" fill="#6b7280" font-family="system-ui, sans-serif" font-size="10">Synonyms</text>
  <rect x="992" y="294" width="46" height="24" rx="5" fill="#f9fafb"/>
  <text x="1000" y="310" fill="#6b7280" font-family="system-ui, sans-serif" font-size="10">Rules</text>
  <line x1="260" y1="328" x2="1058" y2="328" stroke="#f3f4f6" stroke-width="1"/>

  <!-- Row 3 -->
  <rect x="264" y="344" width="16" height="16" rx="3" fill="white" stroke="#d1d5db" stroke-width="1.5"/>
  <text x="294" y="356" fill="#111827" font-family="system-ui, sans-serif" font-size="13" font-weight="600">popular_queries</text>
  <rect x="424" y="342" width="48" height="20" rx="4" fill="#f3f4f6"/>
  <text x="434" y="356" fill="#6b7280" font-family="system-ui, sans-serif" font-size="10">56 docs</text>
  <rect x="478" y="342" width="52" height="20" rx="4" fill="#f3f4f6"/>
  <text x="488" y="356" fill="#6b7280" font-family="system-ui, sans-serif" font-size="10">2 fields</text>
  <rect x="820" y="340" width="52" height="24" rx="5" fill="#f9fafb"/>
  <text x="830" y="356" fill="#6b7280" font-family="system-ui, sans-serif" font-size="10">Schema</text>
  <rect x="878" y="340" width="42" height="24" rx="5" fill="#f9fafb"/>
  <text x="888" y="356" fill="#6b7280" font-family="system-ui, sans-serif" font-size="10">Docs</text>
  <rect x="926" y="340" width="60" height="24" rx="5" fill="#f9fafb"/>
  <text x="933" y="356" fill="#6b7280" font-family="system-ui, sans-serif" font-size="10">Synonyms</text>
  <rect x="992" y="340" width="46" height="24" rx="5" fill="#f9fafb"/>
  <text x="1000" y="356" fill="#6b7280" font-family="system-ui, sans-serif" font-size="10">Rules</text>
  <line x1="260" y1="374" x2="1058" y2="374" stroke="#f3f4f6" stroke-width="1"/>

  <!-- Row 4 -->
  <rect x="264" y="390" width="16" height="16" rx="3" fill="white" stroke="#d1d5db" stroke-width="1.5"/>
  <text x="294" y="402" fill="#111827" font-family="system-ui, sans-serif" font-size="13" font-weight="600">nohits_queries</text>
  <rect x="418" y="388" width="48" height="20" rx="4" fill="#f3f4f6"/>
  <text x="428" y="402" fill="#6b7280" font-family="system-ui, sans-serif" font-size="10">12 docs</text>
  <rect x="472" y="388" width="52" height="20" rx="4" fill="#f3f4f6"/>
  <text x="482" y="402" fill="#6b7280" font-family="system-ui, sans-serif" font-size="10">2 fields</text>
  <rect x="820" y="386" width="52" height="24" rx="5" fill="#f9fafb"/>
  <text x="830" y="402" fill="#6b7280" font-family="system-ui, sans-serif" font-size="10">Schema</text>
  <rect x="878" y="386" width="42" height="24" rx="5" fill="#f9fafb"/>
  <text x="888" y="402" fill="#6b7280" font-family="system-ui, sans-serif" font-size="10">Docs</text>
  <rect x="926" y="386" width="60" height="24" rx="5" fill="#f9fafb"/>
  <text x="933" y="402" fill="#6b7280" font-family="system-ui, sans-serif" font-size="10">Synonyms</text>
  <rect x="992" y="386" width="46" height="24" rx="5" fill="#f9fafb"/>
  <text x="1000" y="402" fill="#6b7280" font-family="system-ui, sans-serif" font-size="10">Rules</text>

  <!-- Footer info -->
  <rect x="244" y="430" width="826" height="40" rx="0 0 12 12" fill="#f9fafb"/>
  <line x1="244" y1="430" x2="1070" y2="430" stroke="#e5e7eb" stroke-width="1"/>
  <text x="264" y="455" fill="#9ca3af" font-family="system-ui, sans-serif" font-size="10">Documents are exported as JSONL. Schemas, synonyms, and curation rules export as JSON. Full backup bundles everything into a single file.</text>
</svg>
