<svg xmlns="http://www.w3.org/2000/svg" width="1100" height="700" viewBox="0 0 1100 700">
  <defs>
    <filter id="shadow" x="-2%" y="-2%" width="106%" height="110%">
      <feDropShadow dx="0" dy="1" stdDeviation="3" flood-opacity="0.08"/>
    </filter>
  </defs>

  <!-- Background -->
  <rect width="1100" height="700" fill="#f8fafc"/>

  <!-- Sidebar (abbreviated) -->
  <rect x="0" y="0" width="220" height="700" fill="#0f172a"/>
  <rect x="20" y="18" width="36" height="36" rx="10" fill="#e11d48"/>
  <text x="66" y="42" fill="white" font-family="system-ui, sans-serif" font-size="15" font-weight="700">Typesense Admin</text>
  <text x="48" y="100" fill="#94a3b8" font-family="system-ui, sans-serif" font-size="13">Dashboard</text>
  <rect x="12" y="112" width="196" height="36" rx="8" fill="rgba(255,255,255,0.1)"/>
  <text x="48" y="136" fill="white" font-family="system-ui, sans-serif" font-size="13" font-weight="500">Collections</text>
  <text x="48" y="168" fill="#94a3b8" font-family="system-ui, sans-serif" font-size="13">Synonyms</text>
  <text x="48" y="200" fill="#94a3b8" font-family="system-ui, sans-serif" font-size="13">API Keys</text>

  <!-- Header -->
  <rect x="220" y="0" width="880" height="56" fill="white" stroke="#e2e8f0" stroke-width="1"/>
  <text x="248" y="24" fill="#6b7280" font-family="system-ui, sans-serif" font-size="11">Collections / </text>
  <text x="312" y="24" fill="#0f172a" font-family="system-ui, sans-serif" font-size="11" font-weight="500">products</text>
  <text x="248" y="44" fill="#0f172a" font-family="system-ui, sans-serif" font-size="17" font-weight="600">products</text>
  <!-- Tab bar -->
  <rect x="420" y="32" width="80" height="24" rx="6" fill="#fef2f2"/>
  <text x="436" y="49" fill="#e11d48" font-family="system-ui, sans-serif" font-size="12" font-weight="500">Documents</text>
  <text x="520" y="49" fill="#6b7280" font-family="system-ui, sans-serif" font-size="12">Schema</text>

  <!-- Search bar -->
  <rect x="248" y="72" width="520" height="38" rx="8" fill="white" stroke="#d1d5db" stroke-width="1"/>
  <text x="276" y="96" fill="#9ca3af" font-family="system-ui, sans-serif" font-size="13">Search documents…</text>
  <rect x="780" y="72" width="72" height="38" rx="8" fill="#e11d48"/>
  <text x="797" y="96" fill="white" font-family="system-ui, sans-serif" font-size="13" font-weight="500">Search</text>

  <!-- View toggle -->
  <rect x="870" y="72" width="72" height="38" rx="8" fill="white" stroke="#e2e8f0" stroke-width="1"/>
  <rect x="870" y="72" width="36" height="38" rx="8" fill="#e11d48"/>
  <text x="881" y="96" fill="white" font-family="system-ui, sans-serif" font-size="11">List</text>
  <text x="914" y="96" fill="#9ca3af" font-family="system-ui, sans-serif" font-size="11">Grid</text>

  <!-- Results count -->
  <text x="248" y="132" fill="#6b7280" font-family="system-ui, sans-serif" font-size="12">Showing <tspan fill="#0f172a" font-weight="600">1–25</tspan> of <tspan fill="#0f172a" font-weight="600">12,455</tspan> documents</text>
  <text x="930" y="132" fill="#9ca3af" font-family="system-ui, sans-serif" font-size="11">3ms</text>

  <!-- Facet Panel -->
  <rect x="248" y="148" width="180" height="540" rx="12" fill="#f9fafb" stroke="#e2e8f0" stroke-width="1"/>
  <text x="264" y="174" fill="#374151" font-family="system-ui, sans-serif" font-size="13" font-weight="600">Facets</text>

  <!-- brand facet -->
  <text x="264" y="200" fill="#374151" font-family="system-ui, sans-serif" font-size="12" font-weight="500">brand</text>
  <!-- Checkboxes -->
  <rect x="264" y="210" width="14" height="14" rx="3" fill="white" stroke="#d1d5db" stroke-width="1"/>
  <text x="284" y="222" fill="#374151" font-family="system-ui, sans-serif" font-size="11">Nike</text>
  <text x="400" y="222" fill="#9ca3af" font-family="system-ui, sans-serif" font-size="11" text-anchor="end">2,341</text>

  <rect x="264" y="232" width="14" height="14" rx="3" fill="white" stroke="#d1d5db" stroke-width="1"/>
  <text x="284" y="244" fill="#374151" font-family="system-ui, sans-serif" font-size="11">Adidas</text>
  <text x="400" y="244" fill="#9ca3af" font-family="system-ui, sans-serif" font-size="11" text-anchor="end">1,893</text>

  <rect x="264" y="254" width="14" height="14" rx="3" fill="#e11d48" stroke="#e11d48" stroke-width="1"/>
  <path d="M267 261 L270 264 L275 258" fill="none" stroke="white" stroke-width="1.5"/>
  <text x="284" y="266" fill="#374151" font-family="system-ui, sans-serif" font-size="11" font-weight="500">Puma</text>
  <text x="400" y="266" fill="#9ca3af" font-family="system-ui, sans-serif" font-size="11" text-anchor="end">1,102</text>

  <rect x="264" y="276" width="14" height="14" rx="3" fill="white" stroke="#d1d5db" stroke-width="1"/>
  <text x="284" y="288" fill="#374151" font-family="system-ui, sans-serif" font-size="11">Reebok</text>
  <text x="400" y="288" fill="#9ca3af" font-family="system-ui, sans-serif" font-size="11" text-anchor="end">856</text>

  <text x="264" y="312" fill="#e11d48" font-family="system-ui, sans-serif" font-size="11">Show 12 more</text>

  <!-- color facet -->
  <text x="264" y="342" fill="#374151" font-family="system-ui, sans-serif" font-size="12" font-weight="500">color</text>
  <rect x="264" y="352" width="14" height="14" rx="3" fill="white" stroke="#d1d5db" stroke-width="1"/>
  <text x="284" y="364" fill="#374151" font-family="system-ui, sans-serif" font-size="11">Black</text>
  <text x="400" y="364" fill="#9ca3af" font-family="system-ui, sans-serif" font-size="11" text-anchor="end">3,421</text>

  <rect x="264" y="374" width="14" height="14" rx="3" fill="white" stroke="#d1d5db" stroke-width="1"/>
  <text x="284" y="386" fill="#374151" font-family="system-ui, sans-serif" font-size="11">White</text>
  <text x="400" y="386" fill="#9ca3af" font-family="system-ui, sans-serif" font-size="11" text-anchor="end">2,890</text>

  <rect x="264" y="396" width="14" height="14" rx="3" fill="white" stroke="#d1d5db" stroke-width="1"/>
  <text x="284" y="408" fill="#374151" font-family="system-ui, sans-serif" font-size="11">Red</text>
  <text x="400" y="408" fill="#9ca3af" font-family="system-ui, sans-serif" font-size="11" text-anchor="end">1,205</text>

  <!-- price range -->
  <text x="264" y="444" fill="#374151" font-family="system-ui, sans-serif" font-size="12" font-weight="500">price</text>
  <text x="264" y="462" fill="#6b7280" font-family="system-ui, sans-serif" font-size="11">$12 — $299</text>
  <!-- Range slider track -->
  <rect x="264" y="472" width="148" height="4" rx="2" fill="#e2e8f0"/>
  <rect x="290" y="472" width="80" height="4" rx="2" fill="#e11d48"/>
  <!-- Slider handles -->
  <circle cx="290" cy="474" r="7" fill="white" stroke="#e11d48" stroke-width="2"/>
  <circle cx="370" cy="474" r="7" fill="white" stroke="#e11d48" stroke-width="2"/>

  <!-- Active filter chip -->
  <rect x="264" y="506" width="110" height="26" rx="13" fill="#eff6ff" stroke="#bfdbfe" stroke-width="1"/>
  <text x="278" y="523" fill="#2563eb" font-family="system-ui, sans-serif" font-size="11">brand: Puma  ×</text>

  <!-- Document List Items -->
  <!-- Doc 1 -->
  <rect x="444" y="148" width="530" height="130" rx="12" fill="white" stroke="#e2e8f0" stroke-width="1" filter="url(#shadow)"/>
  <text x="460" y="170" fill="#9ca3af" font-family="system-ui, sans-serif" font-size="11">1</text>
  <!-- Image placeholder -->
  <rect x="910" y="158" width="52" height="52" rx="8" fill="#f1f5f9"/>
  <text x="924" y="190" fill="#cbd5e1" font-family="system-ui, sans-serif" font-size="20">🖼</text>

  <text x="556" y="172" fill="#6b7280" font-family="system-ui, sans-serif" font-size="12" text-anchor="end">id</text>
  <text x="570" y="172" fill="#0f172a" font-family="monospace" font-size="12">"puma-rs-x-001"</text>

  <text x="556" y="192" fill="#6b7280" font-family="system-ui, sans-serif" font-size="12" text-anchor="end">title</text>
  <text x="570" y="192" fill="#0f172a" font-family="system-ui, sans-serif" font-size="12">"Puma RS-X Reinvention Sneakers"</text>

  <text x="556" y="212" fill="#6b7280" font-family="system-ui, sans-serif" font-size="12" text-anchor="end">brand</text>
  <text x="570" y="212" fill="#0f172a" font-family="system-ui, sans-serif" font-size="12">"Puma"</text>

  <text x="556" y="232" fill="#6b7280" font-family="system-ui, sans-serif" font-size="12" text-anchor="end">price</text>
  <text x="570" y="232" fill="#0f172a" font-family="system-ui, sans-serif" font-size="12">109.99</text>

  <text x="556" y="252" fill="#6b7280" font-family="system-ui, sans-serif" font-size="12" text-anchor="end">color</text>
  <text x="570" y="252" fill="#0f172a" font-family="system-ui, sans-serif" font-size="12">"Black/White"</text>

  <text x="556" y="270" fill="#e11d48" font-family="system-ui, sans-serif" font-size="11">Show 19 more fields</text>

  <!-- Doc 2 -->
  <rect x="444" y="290" width="530" height="130" rx="12" fill="white" stroke="#e2e8f0" stroke-width="1" filter="url(#shadow)"/>
  <text x="460" y="312" fill="#9ca3af" font-family="system-ui, sans-serif" font-size="11">2</text>
  <rect x="910" y="300" width="52" height="52" rx="8" fill="#f1f5f9"/>
  <text x="924" y="332" fill="#cbd5e1" font-family="system-ui, sans-serif" font-size="20">🖼</text>

  <text x="556" y="314" fill="#6b7280" font-family="system-ui, sans-serif" font-size="12" text-anchor="end">id</text>
  <text x="570" y="314" fill="#0f172a" font-family="monospace" font-size="12">"puma-cali-002"</text>

  <text x="556" y="334" fill="#6b7280" font-family="system-ui, sans-serif" font-size="12" text-anchor="end">title</text>
  <text x="570" y="334" fill="#0f172a" font-family="system-ui, sans-serif" font-size="12">"Puma Cali Sport Heritage Womens"</text>

  <text x="556" y="354" fill="#6b7280" font-family="system-ui, sans-serif" font-size="12" text-anchor="end">brand</text>
  <text x="570" y="354" fill="#0f172a" font-family="system-ui, sans-serif" font-size="12">"Puma"</text>

  <text x="556" y="374" fill="#6b7280" font-family="system-ui, sans-serif" font-size="12" text-anchor="end">price</text>
  <text x="570" y="374" fill="#0f172a" font-family="system-ui, sans-serif" font-size="12">89.99</text>

  <text x="556" y="394" fill="#6b7280" font-family="system-ui, sans-serif" font-size="12" text-anchor="end">availability</text>
  <text x="570" y="394" fill="#0f172a" font-family="system-ui, sans-serif" font-size="12">"in stock"</text>

  <text x="556" y="412" fill="#e11d48" font-family="system-ui, sans-serif" font-size="11">Show 19 more fields</text>

  <!-- Doc 3 -->
  <rect x="444" y="432" width="530" height="130" rx="12" fill="white" stroke="#e2e8f0" stroke-width="1" filter="url(#shadow)"/>
  <text x="460" y="454" fill="#9ca3af" font-family="system-ui, sans-serif" font-size="11">3</text>
  <rect x="910" y="442" width="52" height="52" rx="8" fill="#f1f5f9"/>
  <text x="924" y="474" fill="#cbd5e1" font-family="system-ui, sans-serif" font-size="20">🖼</text>

  <text x="556" y="456" fill="#6b7280" font-family="system-ui, sans-serif" font-size="12" text-anchor="end">id</text>
  <text x="570" y="456" fill="#0f172a" font-family="monospace" font-size="12">"puma-suede-003"</text>

  <text x="556" y="476" fill="#6b7280" font-family="system-ui, sans-serif" font-size="12" text-anchor="end">title</text>
  <text x="570" y="476" fill="#0f172a" font-family="system-ui, sans-serif" font-size="12">"Puma Suede Classic XXI Unisex"</text>

  <text x="556" y="496" fill="#6b7280" font-family="system-ui, sans-serif" font-size="12" text-anchor="end">brand</text>
  <text x="570" y="496" fill="#0f172a" font-family="system-ui, sans-serif" font-size="12">"Puma"</text>

  <text x="556" y="516" fill="#6b7280" font-family="system-ui, sans-serif" font-size="12" text-anchor="end">price</text>
  <text x="570" y="516" fill="#0f172a" font-family="system-ui, sans-serif" font-size="12">74.99</text>

  <text x="556" y="536" fill="#6b7280" font-family="system-ui, sans-serif" font-size="12" text-anchor="end">color</text>
  <text x="570" y="536" fill="#0f172a" font-family="system-ui, sans-serif" font-size="12">"Navy/White"</text>

  <text x="556" y="554" fill="#e11d48" font-family="system-ui, sans-serif" font-size="11">Show 19 more fields</text>

  <!-- Pagination -->
  <rect x="444" y="580" width="530" height="40" rx="0" fill="none"/>
  <rect x="444" y="580" width="80" height="36" rx="8" fill="white" stroke="#e2e8f0" stroke-width="1"/>
  <text x="464" y="603" fill="#6b7280" font-family="system-ui, sans-serif" font-size="12">← Prev</text>

  <rect x="540" y="580" width="32" height="36" rx="8" fill="#e11d48"/>
  <text x="551" y="603" fill="white" font-family="system-ui, sans-serif" font-size="12" font-weight="600" text-anchor="middle">1</text>
  <rect x="578" y="580" width="32" height="36" rx="8" fill="white" stroke="#e2e8f0" stroke-width="1"/>
  <text x="594" y="603" fill="#374151" font-family="system-ui, sans-serif" font-size="12" text-anchor="middle">2</text>
  <rect x="616" y="580" width="32" height="36" rx="8" fill="white" stroke="#e2e8f0" stroke-width="1"/>
  <text x="632" y="603" fill="#374151" font-family="system-ui, sans-serif" font-size="12" text-anchor="middle">3</text>
  <text x="664" y="603" fill="#9ca3af" font-family="system-ui, sans-serif" font-size="12">…</text>
  <rect x="682" y="580" width="40" height="36" rx="8" fill="white" stroke="#e2e8f0" stroke-width="1"/>
  <text x="702" y="603" fill="#374151" font-family="system-ui, sans-serif" font-size="12" text-anchor="middle">498</text>

  <rect x="894" y="580" width="80" height="36" rx="8" fill="white" stroke="#e2e8f0" stroke-width="1"/>
  <text x="914" y="603" fill="#374151" font-family="system-ui, sans-serif" font-size="12">Next →</text>
</svg>
